<?xml version="1.0" encoding="UTF-8"?><svg id="Layer_1" xmlns="http://www.w3.org/2000/svg" viewBox="0 0 425.41 198.81"><defs><style>.cls-1{fill:#f4f4f4;stroke-width:0px;}</style></defs><path id="path22" class="cls-1" d="M229.64,0c-1.27,0-2.78,1.51-2.78,3.03v21.72c0,1.77,1.51,3.28,2.78,3.28h192.75c1.76,0,3.03-1.51,3.03-3.28V3.03c0-1.52-1.27-3.03-3.03-3.03h-192.75ZM229.64,57.09c-1.27,0-2.78,1.52-2.78,3.03v21.72c0,1.77,1.51,3.28,2.78,3.28h192.75c1.76,0,3.03-1.51,3.03-3.28v-21.72c0-1.51-1.27-3.03-3.03-3.03h-192.75ZM229.64,113.93c-1.27,0-2.78,1.51-2.78,3.03v21.72c0,1.77,1.51,3.28,2.78,3.28h192.75c1.76,0,3.03-1.51,3.03-3.28v-21.72c0-1.52-1.27-3.03-3.03-3.03h-192.75ZM229.64,170.77c-1.27,0-2.78,1.51-2.78,3.03v21.72c0,1.78,1.51,3.28,2.78,3.28h192.75c1.76,0,3.03-1.51,3.03-3.28v-21.72c0-1.51-1.27-3.03-3.03-3.03h-192.75ZM198.81,3.03c0-1.26-1.51-2.78-3.03-2.78h-21.72c-1.76,0-3.28,1.52-3.28,2.78v192.75c0,1.77,1.52,3.03,3.28,3.03h21.72c1.52,0,3.03-1.26,3.03-3.03V3.03ZM141.72,3.03c0-1.26-1.51-2.78-3.03-2.78h-21.72c-1.76,0-3.28,1.52-3.28,2.78v192.75c0,1.77,1.52,3.03,3.28,3.03h21.72c1.52,0,3.03-1.26,3.03-3.03V3.03ZM84.89,3.03c0-1.26-1.52-2.78-3.05-2.78h-21.72c-1.76,0-3.28,1.52-3.28,2.78v192.75c0,1.77,1.51,3.03,3.28,3.03h21.72c1.52,0,3.05-1.26,3.05-3.03V3.03ZM28.05,3.03c0-1.26-1.52-2.78-3.04-2.78H3.29C1.52.25,0,1.77,0,3.03v192.75c0,1.77,1.52,3.03,3.29,3.03h21.72c1.51,0,3.04-1.26,3.04-3.03V3.03Z"/></svg>