<?xml version="1.0" encoding="utf-8"?>
<!-- Generator: Adobe Illustrator 28.3.0, SVG Export Plug-In . SVG Version: 6.00 Build 0)  -->
<svg version="1.1" id="svg2" xmlns:svg="http://www.w3.org/2000/svg"
	 xmlns="http://www.w3.org/2000/svg" xmlns:xlink="http://www.w3.org/1999/xlink" x="0px" y="0px" viewBox="0 0 414.3 414.3"
	 style="enable-background:new 0 0 414.3 414.3;" xml:space="preserve">
<style type="text/css">
	.st0{fill:#C90526;}
</style>
<g>
	<path id="path1" class="st0" d="M207.2,22.7c-102,0-184.5,82.5-184.5,184.5s82.5,184.5,184.5,184.5s184.5-82.5,184.5-184.5
		S309.2,22.7,207.2,22.7z M207.2,349.7c-78,0-142.5-64.5-142.5-142.5S129.2,64.7,207.2,64.7s142.5,64.5,142.5,142.5
		S286.7,349.7,207.2,349.7z"/>
	<path id="path2" class="st0" d="M231.2,163.7v84c0,12,9,16.5,18,10.5l73.5-42c10.5-6,10.5-15,0-21l-73.5-42
		C238.7,147.2,231.2,151.7,231.2,163.7z"/>
</g>
</svg>
