<?xml version="1.0" encoding="UTF-8"?><svg id="Layer_1" xmlns="http://www.w3.org/2000/svg" viewBox="0 0 512 512"><defs><style>.cls-1{isolation:isolate;}.cls-2{fill:#1a1a1a;}.cls-2,.cls-3{stroke-width:0px;}.cls-3{fill:#00e837;}</style></defs><rect class="cls-2" width="512" height="512" rx="80" ry="80"/><g class="cls-1"><path class="cls-3" d="M69.64,293.84c10.97,0,17.43,7.1,17.43,17.65s-6.67,17.43-17.65,17.43-17.43-7.1-17.43-17.43,6.67-17.65,17.65-17.65Z"/><path class="cls-3" d="M96.1,263.49c0-41.75,30.56-65.63,62.41-65.63,16.57,0,31.2,6.67,40.46,17.65v-15.06h29.05v125.89h-29.05v-16.35c-9.25,11.83-24.32,18.94-40.89,18.94-30.34,0-61.98-24.1-61.98-65.42ZM200.47,263.06c0-21.52-15.92-38.73-37.66-38.73s-38.09,17-38.09,38.73,16.57,39.17,38.09,39.17,37.66-17.43,37.66-39.17Z"/><path class="cls-3" d="M240.5,263.49c0-41.75,30.56-65.63,62.41-65.63,16.57,0,31.2,6.67,40.46,17.65v-15.06h29.05v125.89h-29.05v-16.35c-9.25,11.83-24.32,18.94-40.89,18.94-30.34,0-61.98-24.1-61.98-65.42ZM344.87,263.06c0-21.52-15.92-38.73-37.66-38.73s-38.09,17-38.09,38.73,16.57,39.17,38.09,39.17,37.66-17.43,37.66-39.17Z"/><path class="cls-3" d="M384.24,200.44h21.3v-.22c0-36.15,14.42-50.36,52.72-50.36h2.58v26.9c-23.24,0-25.82,5.38-25.82,23.67h25.82v26.04h-25.82v99.85h-29.48v-99.85h-21.3v-26.04Z"/></g></svg>