<?xml version="1.0" encoding="utf-8"?>
<!-- Generator: Adobe Illustrator 28.3.0, SVG Export Plug-In . SVG Version: 6.00 Build 0)  -->
<svg version="1.1" id="Layer_1" xmlns="http://www.w3.org/2000/svg" xmlns:xlink="http://www.w3.org/1999/xlink" x="0px" y="0px"
	 viewBox="0 0 1061.8 153.5" style="enable-background:new 0 0 1061.8 153.5;" xml:space="preserve">
<style type="text/css">
	.st0{enable-background:new    ;}
	.st1{fill:#F4F4F4;}
	.st2{fill:#00E837;}
</style>
<g class="st0">
	<path class="st1" d="M67.6,18h18.3l34.7,97.4h-18.9l-6-17.3H57.8l-6,17.3H32.9L67.6,18z M64,80.7h25.6l-12.8-37L64,80.7z"/>
	<path class="st1" d="M145.6,105.3v10.1h-17.9V16.7h18v30.6c5.5-6.9,14.7-11.5,25.2-11.5c19.6,0,38.4,14.8,38.4,40.7
		c0,25.6-19.5,40.6-38.2,40.6C160.6,117,151.4,112.8,145.6,105.3z M191.7,76.2c0-13.5-10.3-24-23.5-24c-13.3,0-23.2,10.7-23.2,24
		c0,13.5,9.9,24.3,23.2,24.3C181.4,100.5,191.7,89.8,191.7,76.2z"/>
	<path class="st1" d="M216.9,16.7H235v98.7h-18.1V16.7z"/>
	<path class="st1" d="M242.9,76.6c0-22.8,17.7-40.8,40.6-40.8c23.2,0,40.2,17.1,40.2,40.2v6.8h-63.5c2.5,11.1,11.2,18.4,24,18.4
		c10.1,0,17.9-5.3,21.6-13.7l14.8,8.5c-6.8,12.7-18.8,21.1-36.4,21.1C259.6,117,242.9,99.2,242.9,76.6z M261.1,67.7h44.3
		c-2.7-10.5-10.7-16-21.9-16C272.7,51.6,264.3,58.1,261.1,67.7z"/>
	<path class="st1" d="M325.5,37.4h13.3V25.5L357,13.1v24.3h15.9v16.1H357v29.2c0,13.6,2,15.7,15.9,15.7v16.9h-2.5
		c-24.2,0-31.5-7.7-31.5-32.6V53.5h-13.3V37.4z"/>
	<path class="st1" d="M376.3,76.5c0-22.8,17.9-40.7,40.4-40.7c22.4,0,40.4,17.9,40.4,40.7c0,22.4-18,40.6-40.4,40.6
		C394.2,117,376.3,98.9,376.3,76.5z M439.5,76.5c0-13.2-9.9-23.8-22.7-23.8c-12.9,0-22.7,10.5-22.7,23.8c0,12.9,9.7,23.6,22.7,23.6
		C429.6,100.1,439.5,89.4,439.5,76.5z"/>
	<path class="st1" d="M465.1,37.4H483V47c5.2-6.8,13.2-11.2,23.4-11.2c19.6,0,31,12.1,31,33.4v46.3H519V71
		c0-12.1-5.9-19.6-17.6-19.6c-10.3,0-18.3,7.5-18.3,21.2v42.8h-18V37.4z"/>
</g>
<g class="st0">
	<path class="st1" d="M551.2,16.7H564v98.7h-12.8V16.7z"/>
	<path class="st1" d="M588.2,9.3c5.9,0,9.2,3.6,9.2,8.9c0,5.5-3.3,9.1-9.2,9.1c-5.7,0-9.1-3.6-9.1-9.1
		C579.2,12.9,582.8,9.3,588.2,9.3z M581.8,37.4h12.8v78.1h-12.8V37.4z"/>
	<path class="st1" d="M606.1,37.4h13.7l23.4,61.5l23.1-61.5h13.5l-30.4,78.1h-12.7L606.1,37.4z"/>
	<path class="st1" d="M685.7,76.9c0-23.2,17.3-41.1,40.6-41.1c22.8,0,40,16.1,40,39.6v5.3h-68.2c1.7,14.8,13.1,25,28.8,25
		c12.4,0,21.3-6.4,26-16.5l10.8,5.7c-7.1,13.9-18.8,22.2-36.8,22.2C701.9,117,685.7,99.7,685.7,76.9z M698.7,69.4h54.6
		c-2.3-13.9-12-22.3-27.1-22.3C712.3,47.1,701.7,56.5,698.7,69.4z"/>
</g>
<g class="st0">
	<path class="st2" d="M785.9,95.3c6.8,0,10.8,4.4,10.8,10.9c0,6.4-4.1,10.8-10.9,10.8s-10.8-4.4-10.8-10.8
		C774.9,99.7,779.1,95.3,785.9,95.3z"/>
	<path class="st2" d="M802.3,76.5c0-25.9,18.9-40.7,38.7-40.7c10.3,0,19.3,4.1,25.1,10.9v-9.3h18v78.1h-18v-10.1
		c-5.7,7.3-15.1,11.7-25.4,11.7C821.9,117,802.3,102.1,802.3,76.5z M867,76.2c0-13.3-9.9-24-23.4-24c-13.3,0-23.6,10.5-23.6,24
		c0,13.6,10.3,24.3,23.6,24.3C857.1,100.5,867,89.7,867,76.2z"/>
	<path class="st2" d="M891.8,76.5c0-25.9,18.9-40.7,38.7-40.7c10.3,0,19.3,4.1,25.1,10.9v-9.3h18v78.1h-18v-10.1
		c-5.7,7.3-15.1,11.7-25.4,11.7C911.4,117,891.8,102.1,891.8,76.5z M956.5,76.2c0-13.3-9.9-24-23.4-24c-13.3,0-23.6,10.5-23.6,24
		c0,13.6,10.3,24.3,23.6,24.3C946.7,100.5,956.5,89.7,956.5,76.2z"/>
	<path class="st2" d="M981,37.4h13.2v-0.1c0-22.4,8.9-31.2,32.7-31.2h1.6v16.7c-14.4,0-16,3.3-16,14.7h16v16.1h-16v61.9h-18.3V53.5
		H981V37.4z"/>
</g>
</svg>
