<?xml version="1.0" encoding="UTF-8"?><svg id="Layer_1" xmlns="http://www.w3.org/2000/svg" viewBox="0 0 176.22 158.06"><defs><style>.cls-1{fill:#f4f4f4;stroke-width:0px;}</style></defs><path class="cls-1" d="M14.74,125.1C6.59,125.09-.01,118.48,0,110.33c0-1.99.41-3.96,1.19-5.78l26.26-61.39c3.64-7.29,12.51-10.25,19.8-6.61,6.71,3.35,9.84,11.19,7.28,18.24l-26.26,61.26c-2.28,5.46-7.61,9.02-13.52,9.06ZM56.78,158.06c-8.15-.01-14.75-6.63-14.74-14.78,0-1.99.41-3.96,1.19-5.78L98.16,9.33c3-7.58,11.58-11.29,19.16-8.28,7.58,3,11.29,11.58,8.28,19.16-.1.25-.2.49-.31.73l-55.01,128.28c-2.34,5.37-7.64,8.84-13.5,8.85ZM119.88,142.3c-8.15-.01-14.75-6.63-14.74-14.78,0-1.99.41-3.96,1.19-5.78l41.41-96.66c3-7.58,11.58-11.29,19.16-8.28,7.58,3,11.29,11.58,8.28,19.16-.1.25-.2.49-.31.73l-41.44,96.71c-2.34,5.4-7.66,8.9-13.55,8.9h0Z"/></svg>